HIERARCHY
ROOT Hips
{
	OFFSET 15.585500 22.159004 44.358299
	CHANNELS 6 Xposition Yposition Zposition Zrotation Xrotation Yrotation
	JOINT Chest
	{
		OFFSET -0.128500 0.160400 6.566002
		CHANNELS 6 Xposition Yposition Zposition Zrotation Xrotation Yrotation
		JOINT Chest2
		{
			OFFSET 0.000000 0.000000 3.554802
			CHANNELS 6 Xposition Yposition Zposition Zrotation Xrotation Yrotation
			JOINT Neck
			{
				OFFSET 0.000000 0.000000 8.267998
				CHANNELS 6 Xposition Yposition Zposition Zrotation Xrotation Yrotation
				JOINT Head
				{
					OFFSET 0.000000 0.000002 2.173897
					CHANNELS 6 Xposition Yposition Zposition Zrotation Xrotation Yrotation
					End Site
					{
						OFFSET 0.000000 0.000000 7.718697
					}
				}
			}
			JOINT LeftCollar
			{
				OFFSET 2.057500 0.117599 5.946301
				CHANNELS 6 Xposition Yposition Zposition Zrotation Xrotation Yrotation
				JOINT LeftShoulder
				{
					OFFSET 4.957699 0.000000 0.000000
					CHANNELS 6 Xposition Yposition Zposition Zrotation Xrotation Yrotation
					JOINT LeftElbow
					{
						OFFSET 0.000000 0.000000 -8.465500
						CHANNELS 6 Xposition Yposition Zposition Zrotation Xrotation Yrotation
						JOINT LeftWrist
						{
							OFFSET 0.000000 -0.000002 -14.594898
							CHANNELS 6 Xposition Yposition Zposition Zrotation Xrotation Yrotation
							End Site
							{
								OFFSET 0.000000 0.000000 -2.173901
							}
						}
					}
				}
			}
			JOINT RightCollar
			{
				OFFSET -3.048500 -0.728800 6.604099
				CHANNELS 6 Xposition Yposition Zposition Zrotation Xrotation Yrotation
				JOINT RightShoulder
				{
					OFFSET -3.710299 0.000000 0.000000
					CHANNELS 6 Xposition Yposition Zposition Zrotation Xrotation Yrotation
					JOINT RightElbow
					{
						OFFSET 0.000000 0.000000 -10.450901
						CHANNELS 6 Xposition Yposition Zposition Zrotation Xrotation Yrotation
						JOINT RightWrist
						{
							OFFSET 0.000000 0.000000 -12.539200
							CHANNELS 6 Xposition Yposition Zposition Zrotation Xrotation Yrotation
							End Site
							{
								OFFSET 0.000000 -0.000002 -2.173901
							}
						}
					}
				}
			}
		}
	}
	JOINT LeftHip
	{
		OFFSET 2.442599 -0.601400 -2.767502
		CHANNELS 6 Xposition Yposition Zposition Zrotation Xrotation Yrotation
		JOINT LeftKnee
		{
			OFFSET 0.000000 -0.000002 -17.033703
			CHANNELS 6 Xposition Yposition Zposition Zrotation Xrotation Yrotation
			JOINT LeftAnkle
			{
				OFFSET 0.000000 -0.000002 -19.318800
				CHANNELS 6 Xposition Yposition Zposition Zrotation Xrotation Yrotation
				End Site
				{
					OFFSET 0.000000 -8.281900 0.000000
				}
			}
		}
	}
	JOINT RightHip
	{
		OFFSET -3.126200 -0.601400 -2.283501
		CHANNELS 6 Xposition Yposition Zposition Zrotation Xrotation Yrotation
		JOINT RightKnee
		{
			OFFSET 0.000000 -0.000002 -16.919401
			CHANNELS 6 Xposition Yposition Zposition Zrotation Xrotation Yrotation
			JOINT RightAnkle
			{
				OFFSET 0.000000 -0.000002 -18.035900
				CHANNELS 6 Xposition Yposition Zposition Zrotation Xrotation Yrotation
				End Site
				{
					OFFSET 0.000000 -9.230099 0.000000
				}
			}
		}
	}
}
MOTION
Frames: 6
Frame Time: 0.041667
18.064804 40.543404 9.487488 12.546867 -3.650285 -32.840506 -0.128504 0.160395 6.565996 -22.206654 16.665634 17.996824 -0.000000 0.000005 3.554803 1.718113 -10.683673 -0.640477 -0.000002 0.000005 8.268000 44.834069 8.790252 -14.033512 0.000004 0.000007 2.173895 4.372425 3.264245 8.067078 2.057504 0.117604 5.946302 -22.313634 0.967424 20.478441 4.957696 -0.000002 0.000000 9.829969 -13.808522 -74.708992 -0.000005 0.000002 -8.465498 -70.355552 -158.011741 -86.791856 0.000001 0.000000 -14.594896 52.737202 -28.403016 22.385132 -3.048501 -0.728795 6.604105 25.555648 3.790247 -8.566399 -3.710290 0.000002 -0.000003 27.507262 -18.424917 116.582177 0.000002 0.000012 -10.450912 -165.018846 -59.853043 -146.382005 0.000000 -0.000000 -12.539194 2.200203 -12.869619 -29.689480 2.442593 -0.601404 -2.767504 151.997800 22.645023 84.096738 -0.000002 -0.000006 -17.033707 -226.504782 -31.406644 52.872720 -0.000001 0.000008 -19.318804 97.764056 44.249432 118.173119 -3.126200 -0.601400 -2.283503 -149.506421 -3.127652 -105.914398 0.000000 -0.000004 -16.919399 147.373202 -10.094631 -141.433574 -0.000002 -0.000005 -18.035892 -11.665316 49.070056 -128.314324
18.062901 40.574799 9.471802 12.636185 -3.675059 -32.818031 -0.128499 0.160401 6.566002 -22.364754 16.797916 17.994432 0.000001 0.000002 3.554801 1.964351 -10.693654 -0.771761 -0.000001 0.000008 8.268003 44.638613 9.096308 -13.936778 -0.000002 0.000006 2.173896 4.287340 3.354490 8.068677 2.057504 0.117604 5.946304 -22.401009 0.859526 20.808626 4.957696 0.000008 -0.000001 9.559657 -13.559629 -74.606102 -0.000000 -0.000002 -8.465502 -70.845058 -159.699508 -85.668344 0.000000 0.000004 -14.594894 50.565519 -30.209674 22.675104 -3.048501 -0.728794 6.604102 25.252260 3.785652 -8.409024 -3.710291 0.000005 0.000003 27.652014 -18.351221 116.485448 0.000006 0.000006 -10.450902 -165.081793 -59.845933 -146.419175 0.000001 0.000007 -12.539194 2.286808 -12.820514 -29.714776 2.442594 -0.601406 -2.767500 151.957721 22.693039 84.132119 -0.000002 -0.000006 -17.033707 -226.240700 -31.283076 52.992876 0.000003 0.000005 -19.318800 97.673795 44.170850 118.162478 -3.126195 -0.601395 -2.283499 -149.508073 -2.982292 -105.946151 -0.000001 0.000001 -16.919397 147.486488 -10.028726 -141.414491 -0.000002 -0.000000 -18.035896 -11.656609 49.082446 -128.358570
18.061499 40.605598 9.456398 12.726464 -3.699692 -32.793381 -0.128502 0.160403 6.566005 -22.519117 16.926071 17.982978 -0.000004 0.000002 3.554806 2.043038 -10.706859 -0.805075 -0.000002 0.000001 8.268002 44.623771 9.326827 -13.933927 0.000003 0.000004 2.173896 4.202295 3.447734 8.068689 2.057508 0.117598 5.946306 -22.322773 0.804437 20.974758 4.957695 0.000007 0.000002 9.309476 -13.301969 -74.455168 0.000000 0.000006 -8.465498 -71.420925 -161.387097 -84.587351 0.000000 0.000003 -14.594901 48.412439 -31.975466 22.938087 -3.048504 -0.728801 6.604097 25.127965 3.727525 -8.316926 -3.710293 -0.000004 -0.000006 27.780244 -18.297944 116.345784 0.000006 0.000006 -10.450908 -165.137513 -59.830114 -146.464131 0.000004 0.000001 -12.539198 2.384657 -12.762620 -29.718795 2.442594 -0.601393 -2.767504 151.927613 22.755786 84.166468 -0.000001 -0.000009 -17.033703 -226.000974 -31.172181 53.096729 -0.000003 0.000002 -19.318802 97.581997 44.098526 118.137766 -3.126201 -0.601397 -2.283499 -149.512554 -2.838303 -105.978902 -0.000000 -0.000003 -16.919399 147.597246 -9.962364 -141.397196 -0.000003 -0.000002 -18.035894 -11.645245 49.094607 -128.404333
18.060600 40.635704 9.441105 12.821834 -4.002683 -32.766941 -0.128500 0.160400 6.566005 -22.851902 17.262950 18.057741 -0.000001 0.000000 3.554806 2.115620 -10.712382 -0.834481 0.000000 0.000001 8.267995 44.615547 9.557480 -13.927111 0.000003 0.000002 2.173904 4.117679 3.542938 8.068481 2.057509 0.117598 5.946305 -22.195280 0.757103 21.570620 4.957694 0.000003 0.000001 8.924926 -13.114713 -74.746127 -0.000006 0.000006 -8.465502 -72.080305 -163.069359 -83.551409 -0.000002 -0.000001 -14.594898 46.288393 -33.697510 23.188393 -3.048498 -0.728806 6.604100 25.016638 3.658627 -8.172465 -3.710296 0.000003 -0.000004 27.891337 -18.267457 116.162298 0.000007 0.000006 -10.450901 -165.186459 -59.805027 -146.518855 -0.000000 0.000003 -12.539194 2.494239 -12.696748 -29.698909 2.442592 -0.601401 -2.767500 151.799206 22.628367 84.080517 -0.000001 0.000004 -17.033709 -225.787968 -31.076210 53.182786 -0.000001 0.000005 -19.318802 97.489202 44.033724 118.097837 -3.126205 -0.601401 -2.283502 -149.670331 -2.899369 -105.892651 -0.000002 -0.000002 -16.919397 147.702171 -9.897990 -141.379096 -0.000001 -0.000001 -18.035894 -11.631257 49.106390 -128.451529
18.059898 40.664703 9.426102 12.911602 -4.150197 -32.738261 -0.128506 0.160405 6.565998 -23.076463 17.477267 18.074376 0.000000 0.000006 3.554809 2.180686 -10.710852 -0.859668 -0.000002 0.000003 8.267995 44.614912 9.785397 -13.917983 -0.000001 0.000005 2.173897 4.155455 3.665628 8.131789 2.057505 0.117606 5.946300 -22.105730 0.682400 21.602662 4.957695 0.000005 0.000001 8.733271 -12.842888 -74.469778 0.000000 0.000006 -8.465509 -72.814529 -164.738425 -82.563135 0.000001 -0.000001 -14.594900 44.207389 -35.372542 23.441501 -3.048503 -0.728797 6.604095 24.918844 3.579674 -7.981380 -3.710291 -0.000002 -0.000003 27.985845 -18.259355 115.937735 0.000006 0.000006 -10.450907 -165.229612 -59.770644 -146.584698 -0.000003 0.000000 -12.539198 2.614714 -12.624999 -29.654509 2.442590 -0.601399 -2.767503 151.745070 22.625413 84.059015 -0.000002 0.000000 -17.033707 -225.600438 -30.995354 53.251512 -0.000005 0.000005 -19.318804 97.394830 43.976053 118.041911 -3.126204 -0.601396 -2.283504 -149.745819 -2.852472 -105.870172 -0.000001 -0.000004 -16.919394 147.804351 -9.834958 -141.361529 0.000000 -0.000001 -18.035894 -11.614177 49.117943 -128.500707
18.059505 40.692703 9.411289 12.998467 -4.286847 -32.708355 -0.128499 0.160403 6.566004 -23.287743 17.679171 18.082762 0.000001 0.000005 3.554804 2.237302 -10.703100 -0.880296 -0.000000 0.000000 8.267996 44.622299 10.008631 -13.908207 -0.000001 0.000005 2.173898 4.120312 3.771905 8.157811 2.057508 0.117598 5.946303 -22.006615 0.596767 21.595236 4.957695 0.000006 0.000001 8.562200 -12.569886 -74.158622 -0.000001 0.000003 -8.465498 -73.611701 -166.383408 -81.625952 0.000001 0.000005 -14.594898 42.186684 -36.997516 23.713160 -3.048499 -0.728800 6.604103 24.835369 3.492761 -7.752405 -3.710295 0.000004 -0.000002 28.064926 -18.272223 115.678297 0.000003 0.000008 -10.450907 -165.269418 -59.727689 -146.663149 0.000001 0.000002 -12.539194 2.743122 -12.550432 -29.586447 2.442595 -0.601396 -2.767499 151.707094 22.639070 84.040109 -0.000001 -0.000002 -17.033703 -225.436554 -30.929275 53.304241 -0.000002 0.000001 -19.318806 97.299098 43.924875 117.970481 -3.126196 -0.601399 -2.283498 -149.825746 -2.800995 -105.853425 0.000001 -0.000007 -16.919399 147.900930 -9.779770 -141.350751 -0.000002 -0.000003 -18.035896 -11.594248 49.129161 -128.551619
